# xmcd
#
# Track frame offsets:
#	150
#	39523
#	72526
#	91644
#	123885
#	136420
#	166585
#	199478
#	227670
#	244064
#	266196
#	300998
#
# Disc length: 4334
#
# Revision: 1
# Processed by: cddbd v1.5.1PL0 Copyright (c) Steve Scherf et al.
# Submitted via: CDex 1.50beta10
# Normalized: r0:DSETVAR1,TDELIM( - )
#
DISCID=9d10ec0c
DTITLE=Various Artist - Jazz Magazine Vol 15
DYEAR=2003
DGENRE=Jazz
TTITLE0=Chet - Baker - Once Upon A Summertime
TTITLE1=Mirabassi-Boltro-Ferri - Jean-Paul Chez Les Anges
TTITLE2=Casandra Wilson - I Want More
TTITLE3=Lousi Sclavis - Il Disegno Smangiato D'Un Uomo
TTITLE4=Art Tatum - Get Happy
TTITLE5=Genova Jazz Band - Black and Blue
TTITLE6=Francesco Bearzatti Trio - Buk's Blues
TTITLE7=Wave Flow - Sweetheart
TTITLE8=Cecil Taylor and Italian Instabile Orchestra - The Owner of the River Bank
TTITLE9=And - Mystic Rose
TTITLE10=Iptonitica - Dark Running
TTITLE11=Arthur Blythe - Cousin Mary
EXTD=YEAR: 2003
EXTT0=
EXTT1=
EXTT2=
EXTT3=
EXTT4=
EXTT5=
EXTT6=
EXTT7=
EXTT8=
EXTT9=
EXTT10=
EXTT11=
PLAYORDER=
